PathFileType	4	(X/Y/Z)	/home/abdul/Desktop/myosuite/custom_workspace/IK/output/S12_12_1.trc
DataRate	CameraRate	NumFrames	NumMarkers	Units	OrigDataRate	OrigDataStartFrame	OrigNumFrames
200.0	200.0	39	3	mm	200.0	1822	2082
Frame#	Time	V_Shoulder			V_Elbow			V_Wrist		
		X1	Y1	Z1	X2	Y2	Z2	X3	Y3	Z3

1822	9.105	-32.31210509476012	712.2782320246396	238.81596276077508	-87.78205280811915	677.8328353918687	-18.705915115135912	-144.70668220170228	517.1936233276227	21.113808526545235
1823	9.11	-32.23077867783369	711.8808248465843	238.76569137688293	-87.8056842043637	677.8256115774957	-18.705800160550503	-144.7029880298131	517.1898445380386	21.08718265104997
1824	9.115	-32.14937598386184	711.4897223829375	238.71701546185668	-87.82838608131692	677.8187614930771	-18.70483724452338	-144.69919625233481	517.1859782119884	21.06118914689586
1825	9.12	-32.0680098203949	711.1049803291144	238.66986664294373	-87.85004844305274	677.8122611125767	-18.703130523651982	-144.69529325369496	517.1820461858819	21.035834465687927
1826	9.125	-31.986791763485247	710.726647590502	238.62417689698512	-87.87056876396204	677.8060864609263	-18.700781276436533	-144.691266413736	517.1780689324937	21.0111231462204
1827	9.13	-31.905832028424943	710.354766317039	238.57987865176037	-87.88985209979512	677.8002136749342	-18.697887786567563	-144.68710413896815	517.1740655619011	20.987057867927803
1828	9.135	-31.825239343562263	709.9893719501034	238.5369048851763	-87.9078111704074	677.7946190628561	-18.694545236189658	-144.6827958892717	517.1700538277596	20.963639510022908
1829	9.14	-31.745120827413057	709.6304932815295	238.4951892221496	-87.92436641462677	677.7892791624033	-18.690845609172296	-144.67833219994196	517.1660501386173	20.940867215771327
1830	9.145	-31.66558186927433	709.278152524545	238.45466602903835	-87.9394460177782	677.7841707969809	-18.686877604382016	-144.6737046990105	517.1620695739659	20.918738461363336
1831	9.15	-31.586726013538698	708.9323653963864	238.41527050548245	-87.95298591251117	677.7792711299653	-18.682726558914652	-144.6689061198139	517.1581259047227	20.89724912885565
1832	9.155	-31.508654847899077	708.5931412123227	238.37693877351634	-87.9649297536805	677.7745577168508	-18.67847438121202	-144.66393030881918	517.1542316178359	20.87639358266943
1833	9.16	-31.43146789562282	708.2604829907846	238.3396079638237	-87.97522886812666	677.7700085551116	-18.674199493954543	-144.65877222875008	517.1503979447033	20.85616474914544
1834	9.165	-31.35526251206453	707.9343875692657	238.3032162990078	-87.98384218029263	677.7656021316457	-18.669976786590002	-144.6534279570921	517.1466348931021	20.836554198672843
1835	9.17	-31.28013378557577	707.6148457306448	238.26770317375622	-87.99073611469423	677.761317467683	-18.665877577329013	-144.64789468008468	517.1429512823195	20.817552229924786
1836	9.175	-31.206174442958925	707.3018423395346	238.23300923178525	-87.99588447633626	677.7571341610635	-18.66196958441001	-144.64217068233904	517.1393547811856	20.799147955751053
1837	9.18	-31.133474759600944	706.995356488257	238.19907643945393	-87.99926831023024	677.7530324258041	-18.658316906410796	-144.63625533224584	517.1358519487139	20.781329390295994
1838	9.185	-31.06212247441091	706.6953616520055	238.1658481559432	-88.00087574122792	677.7489931288935	-18.654980011359886	-144.63014906336144	517.132448277054	20.764083536928084
1839	9.19	-30.99220270967332	706.4018258527408	238.13326919990368	-88.00070179543202	677.7449978242687	-18.652015734379322	-144.62385335198252	517.1291482364747	20.747396476586346
1840	9.195	-30.92379789591689	706.1147118313435	238.10128591247857	-87.99874820448647	677.7410287839493	-18.649477283571137	-144.6173706911377	517.125955322099	20.73125345616754
1841	9.2	-30.856987701885817	705.8339772275282	238.06984621661843	-87.99502319407904	677.7370690263131	-18.647414253842506	-144.61070456124176	517.1228721021196	20.715638976597383
1842	9.205	-30.791848969688402	705.5595747670087	238.03889967260764	-87.98954125801319	677.7331023415147	-18.64587264834966	-144.6038593976695	517.1199002672362	20.700536880248062
1843	9.21	-30.728455655184675	705.2914524553815	238.0083975297315	-87.98232291922022	677.729113314067	-18.644894907227847	-144.59684055551884	517.1170406810604	20.68593043738353
1844	9.215	-30.66687877366247	705.0295537781898	237.97829277401925	-87.97339447909036	677.7250873426074	-18.644519943264378	-144.58965427183946	517.1142934312463	20.671802431333255
1845	9.22	-30.607186350838106	704.7738179066124	237.94854017200518	-87.96278775650006	677.7210106568925	-18.64478318416334	-144.5823076256093	517.1116578811123	20.658135242114145
1846	9.225	-30.54944337920541	704.5241799082119	237.91909631045792	-87.9505398179049	677.7168703320685	-18.64571662104471	-144.57480849574347	517.1091327215337	20.64491092823915
1847	9.23	-30.49371177974412	704.2805709621688	237.88991963203526	-87.93669269985155	677.7126543002771	-18.647348862816397	-144.5671655174216	517.106716022891	20.632111306469763
1848	9.235	-30.44005036898604	704.0429185784229	237.86097046682858	-87.9212931252408	677.7083513596638	-18.649705196056214	-144.55938803701588	517.1044052868738	20.6197180292881
1849	9.24	-30.38851483142483	703.811146820136	237.83221105977086	-87.90439221464422	677.7039511808612	-18.652807650040383	-144.55148606589933	517.1021974979483	20.607712659882274
1850	9.245	-30.33915769724345	703.5851765288891	237.8036055938879	-87.88604519394313	677.6994443110267	-18.656675066557376	-144.54347023340796	517.1000891743071	20.59607674445673
1851	9.25	-30.29202832532087	703.3649255520246	237.77512020938198	-87.86631109951834	677.6948221755179	-18.661323174149338	-144.53535173921972	517.0980764181322	20.584791881696674
1852	9.255	-30.247172891468182	703.1503089715474	237.74672301854392	-87.84525248217385	677.6900770772913	-18.666764666428662	-144.52714230540627	517.0961549650119	20.573839789232863
1853	9.26	-30.204634381832786	702.9412393339971	237.71838411649946	-87.82293511092854	677.6852021941166	-18.673009284123964	-144.51885412839988	517.094320232361	20.563202366970003
1854	9.265	-30.164452591398174	702.7376268807124	237.69007558780217	-87.79942767775579	677.6801915736934	-18.680063900517727	-144.51049983110568	517.092567366707	20.552861757158176
1855	9.27	-30.126664127496117	702.5393797779108	237.66177150889447	-87.77480150429432	677.6750401267657	-18.68793260994729	-144.502092415374	517.0908912897139	20.542800401103037
1856	9.275	-30.09130241823783	702.3464043460204	237.63344794646648	-87.7491302514932	677.6697436183224	-18.696616819051034	-144.4936452150339	517.0892867428258	20.533001092425998
1857	9.28	-30.058397725760667	702.1586052877041	237.60508295175066	-87.7224896330915	677.6642986569741	-18.70611534045306	-144.4851718496707	517.0877483304207	20.523447026800916
1858	9.285	-30.027977164177628	701.9758859140296	237.5766565507985	-87.69495713376875	677.658702682595	-18.71642448859148	-144.47668617931498	517.0862705613769	20.514121848108754
1859	9.29	-30.000064722107737	701.798148368256	237.548150730794	-87.66661173273633	677.6529539523178	-18.727538177408288	-144.46820226019167	517.0848478889625	20.505009690965878
1860	9.295	-29.97468128965714	701.6252938467159	237.51954942246653	-87.6375336334731	677.6470515249623	-18.739448019631734	-144.45973430166143	517.0834747489696	20.49609521959585
